ffmpeg started on 2025-06-27 at 10:09:08
Report written to "D:\Convert\FFMetrics\reports\psnr_report-6.txt"
Log level: 32
Command line:
ffmpeg -hide_banner -nostdin -i "G:\\\xc0\xed\xe8\xec\xe5\\[\xd2\xee\xef-4]\\\xd2\xee\xea\xe8\xe9\xf1\xea\xe8\xe9 \xc3\xf3\xeb\xfc\\\xd2\xc2-4\\Tokyo_Ghoul_Re_[05]_[AniLibria_TV]_[HDTVRip_720p]_HEVC.mkv" -i "G:\\\xc0\xed\xe8\xec\xe5\\[\xd2\xee\xef-4]\\\xd2\xee\xea\xe8\xe9\xf1\xea\xe8\xe9 \xc3\xf3\xeb\xfc\\\xd2\xc2-4\\Tokyo_Ghoul_Re_[05]_[AniLibria_TV]_[HDTVRip_720p].mkv" -lavfi "[0:v]settb=AVTB,setpts=PTS-STARTPTS,format=pix_fmts=yuv420p10,fps=24000/1001,scale=1280:720:flags=bicubic[main];[1:v]settb=AVTB,setpts=PTS-STARTPTS,format=pix_fmts=yuv420p,fps=24000/1001,scale=1280:720:flags=bicubic[ref];[main][ref]psnr=eof_action=endall:stats_file='D\\:/Convert/FFMetrics/logs/psnr_logfile-6.txt'" -f null -
Input #0, matroska,webm, from 'G:\Аниме\[Топ-4]\Токийский Гуль\ТВ-4\Tokyo_Ghoul_Re_[05]_[AniLibria_TV]_[HDTVRip_720p]_HEVC.mkv':
  Metadata:
    ENCODER         : Lavf61.7.100
  Duration: 00:24:30.01, start: -0.021000, bitrate: 865 kb/s
  Stream #0:0(jpn): Video: hevc (Main 10), yuv420p10le(tv, bt709, progressive), 1280x720 [SAR 1:1 DAR 16:9], 23.98 fps, 23.98 tbr, 1k tbn (default)
      Metadata:
        ENCODER         : Lavc61.19.100 libx265
        BPS             : 525802
        DURATION        : 00:24:30.010708333
        NUMBER_OF_FRAMES: 35245
        NUMBER_OF_BYTES : 96616824
        _STATISTICS_WRITING_APP: mkvpropedit v66.0.0 ('Josie') 64-bit
        _STATISTICS_WRITING_DATE_UTC: 2025-06-26 13:48:35
        _STATISTICS_TAGS: BPS DURATION NUMBER_OF_FRAMES NUMBER_OF_BYTES
  Stream #0:1(rus): Audio: aac (LC), 48000 Hz, stereo, fltp (default)
      Metadata:
        title           : Lupin, Silv, December & MyAska
        ENCODER         : Lavc61.19.100 aac
        BPS             : 194527
        DURATION        : 00:24:29.973000000
        NUMBER_OF_FRAMES: 68906
        NUMBER_OF_BYTES : 35743738
        _STATISTICS_WRITING_APP: mkvpropedit v66.0.0 ('Josie') 64-bit
        _STATISTICS_WRITING_DATE_UTC: 2025-06-26 13:48:35
        _STATISTICS_TAGS: BPS DURATION NUMBER_OF_FRAMES NUMBER_OF_BYTES
  Stream #0:2(rus): Subtitle: ass (ssa) (default) (forced)
      Metadata:
        title           : Надписи
        BPS             : 66036
        DURATION        : 00:23:05.090000000
        NUMBER_OF_FRAMES: 38631
        NUMBER_OF_BYTES : 11433329
        _STATISTICS_WRITING_APP: mkvpropedit v66.0.0 ('Josie') 64-bit
        _STATISTICS_WRITING_DATE_UTC: 2025-06-26 13:48:35
        _STATISTICS_TAGS: BPS DURATION NUMBER_OF_FRAMES NUMBER_OF_BYTES
  Stream #0:3(rus): Subtitle: ass (ssa)
      Metadata:
        title           : Субтитры
        BPS             : 63609
        DURATION        : 00:24:00.320000000
        NUMBER_OF_FRAMES: 38924
        NUMBER_OF_BYTES : 11452188
        _STATISTICS_WRITING_APP: mkvpropedit v66.0.0 ('Josie') 64-bit
        _STATISTICS_WRITING_DATE_UTC: 2025-06-26 13:48:35
        _STATISTICS_TAGS: BPS DURATION NUMBER_OF_FRAMES NUMBER_OF_BYTES
Input #1, matroska,webm, from 'G:\Аниме\[Топ-4]\Токийский Гуль\ТВ-4\Tokyo_Ghoul_Re_[05]_[AniLibria_TV]_[HDTVRip_720p].mkv':
  Metadata:
    encoder         : libebml v1.4.2 + libmatroska v1.6.4
    creation_time   : 2024-12-27T09:45:09.000000Z
  Duration: 00:24:30.01, start: 0.000000, bitrate: 2382 kb/s
  Stream #1:0(jpn): Video: h264 (Main), yuv420p(tv, bt709, progressive), 1280x720, SAR 1:1 DAR 16:9, 23.98 fps, 23.98 tbr, 1k tbn (default)
      Metadata:
        BPS             : 2034583
        DURATION        : 00:24:30.011000000
        NUMBER_OF_FRAMES: 35245
        NUMBER_OF_BYTES : 373857448
        _STATISTICS_WRITING_APP: mkvmerge v66.0.0 ('Josie') 64-bit
        _STATISTICS_WRITING_DATE_UTC: 2024-12-27 09:45:09
        _STATISTICS_TAGS: BPS DURATION NUMBER_OF_FRAMES NUMBER_OF_BYTES
  Stream #1:1(rus): Audio: aac (LC), 48000 Hz, stereo, fltp (default)
      Metadata:
        title           : Lupin, Silv, December & MyAska
        BPS             : 192093
        DURATION        : 00:24:29.973000000
        NUMBER_OF_FRAMES: 68905
        NUMBER_OF_BYTES : 35296493
        _STATISTICS_WRITING_APP: mkvmerge v66.0.0 ('Josie') 64-bit
        _STATISTICS_WRITING_DATE_UTC: 2024-12-27 09:45:09
        _STATISTICS_TAGS: BPS DURATION NUMBER_OF_FRAMES NUMBER_OF_BYTES
  Stream #1:2(rus): Subtitle: ass (ssa) (default) (forced)
      Metadata:
        title           : Надписи
        BPS             : 66036
        DURATION        : 00:23:05.090000000
        NUMBER_OF_FRAMES: 38631
        NUMBER_OF_BYTES : 11433329
        _STATISTICS_WRITING_APP: mkvmerge v66.0.0 ('Josie') 64-bit
        _STATISTICS_WRITING_DATE_UTC: 2024-12-27 09:45:09
        _STATISTICS_TAGS: BPS DURATION NUMBER_OF_FRAMES NUMBER_OF_BYTES
  Stream #1:3(rus): Subtitle: ass (ssa)
      Metadata:
        title           : Субтитры
        BPS             : 63609
        DURATION        : 00:24:00.320000000
        NUMBER_OF_FRAMES: 38924
        NUMBER_OF_BYTES : 11452188
        _STATISTICS_WRITING_APP: mkvmerge v66.0.0 ('Josie') 64-bit
        _STATISTICS_WRITING_DATE_UTC: 2024-12-27 09:45:09
        _STATISTICS_TAGS: BPS DURATION NUMBER_OF_FRAMES NUMBER_OF_BYTES
  Stream #1:4: Attachment: ttf
      Metadata:
        filename        : simsun_0.ttc
        mimetype        : application/x-truetype-font
  Stream #1:5: Attachment: ttf
      Metadata:
        filename        : Snowstorm.ttf
        mimetype        : application/x-truetype-font
  Stream #1:6: Attachment: ttf
      Metadata:
        filename        : TEMPSITC.TTF
        mimetype        : application/x-truetype-font
  Stream #1:7: Attachment: otf
      Metadata:
        filename        : TrajanPro3-Bold.otf
        mimetype        : application/vnd.ms-opentype
  Stream #1:8: Attachment: otf
      Metadata:
        filename        : TrajanPro3-Regular.otf
        mimetype        : application/vnd.ms-opentype
  Stream #1:9: Attachment: ttf
      Metadata:
        filename        : v_HolyMackerelli_v1.9.ttf
        mimetype        : application/x-truetype-font
  Stream #1:10: Attachment: ttf
      Metadata:
        filename        : XENI.TTF
        mimetype        : application/x-truetype-font
  Stream #1:11: Attachment: ttf
      Metadata:
        filename        : Aero Matics Display Bold Italic.ttf
        mimetype        : application/x-truetype-font
  Stream #1:12: Attachment: ttf
      Metadata:
        filename        : Aero Matics Display Bold.ttf
        mimetype        : application/x-truetype-font
  Stream #1:13: Attachment: ttf
      Metadata:
        filename        : Aero Matics Display Italic.ttf
        mimetype        : application/x-truetype-font
  Stream #1:14: Attachment: ttf
      Metadata:
        filename        : Aero Matics Display Light Italic.ttf
        mimetype        : application/x-truetype-font
  Stream #1:15: Attachment: ttf
      Metadata:
        filename        : Aero Matics Display Light.ttf
        mimetype        : application/x-truetype-font
  Stream #1:16: Attachment: ttf
      Metadata:
        filename        : Aero_Matics_Display_Regular.ttf
        mimetype        : application/x-truetype-font
  Stream #1:17: Attachment: ttf
      Metadata:
        filename        : BenchNine-Regular.ttf
        mimetype        : application/x-truetype-font
  Stream #1:18: Attachment: ttf
      Metadata:
        filename        : OpenSanA.ttf
        mimetype        : application/x-truetype-font
  Stream #1:19: Attachment: ttf
      Metadata:
        filename        : REDOCTOB.otf
        mimetype        : application/x-truetype-font
Stream mapping:
  Stream #0:0 (hevc) -> settb:default
  Stream #1:0 (h264) -> settb:default
  psnr:default -> Stream #0:0 (wrapped_avframe)
  Stream #0:1 -> #0:1 (aac (native) -> pcm_s16le (native))
Output #0, null, to 'pipe:':
  Metadata:
    encoder         : Lavf61.7.100
  Stream #0:0: Video: wrapped_avframe, yuv420p10le(tv, bt709, progressive), 1280x720 [SAR 1:1 DAR 16:9], q=2-31, 200 kb/s, 23.98 fps, 23.98 tbn
      Metadata:
        encoder         : Lavc61.19.100 wrapped_avframe
  Stream #0:1(rus): Audio: pcm_s16le, 48000 Hz, stereo, s16, 1536 kb/s (default)
      Metadata:
        title           : Lupin, Silv, December & MyAska
        _STATISTICS_TAGS: BPS DURATION NUMBER_OF_FRAMES NUMBER_OF_BYTES
        BPS             : 194527
        DURATION        : 00:24:29.973000000
        NUMBER_OF_FRAMES: 68906
        NUMBER_OF_BYTES : 35743738
        _STATISTICS_WRITING_APP: mkvpropedit v66.0.0 ('Josie') 64-bit
        _STATISTICS_WRITING_DATE_UTC: 2025-06-26 13:48:35
        encoder         : Lavc61.19.100 pcm_s16le
frame=  524 fps=0.0 q=-0.0 size=N/A time=00:00:21.85 bitrate=N/A speed=42.3x    frame= 1057 fps=1022 q=-0.0 size=N/A time=00:00:44.08 bitrate=N/A speed=42.6x    frame= 1469 fps=948 q=-0.0 size=N/A time=00:01:01.26 bitrate=N/A speed=39.5x    frame= 1847 fps=894 q=-0.0 size=N/A time=00:01:17.03 bitrate=N/A speed=37.3x    frame= 2194 fps=852 q=-0.0 size=N/A time=00:01:31.50 bitrate=N/A speed=35.5x    frame= 2540 fps=822 q=-0.0 size=N/A time=00:01:45.93 bitrate=N/A speed=34.3x    frame= 2903 fps=805 q=-0.0 size=N/A time=00:02:01.07 bitrate=N/A speed=33.6x    frame= 3206 fps=779 q=-0.0 size=N/A time=00:02:13.71 bitrate=N/A speed=32.5x    frame= 3575 fps=772 q=-0.0 size=N/A time=00:02:29.10 bitrate=N/A speed=32.2x    frame= 3855 fps=748 q=-0.0 size=N/A time=00:02:40.78 bitrate=N/A speed=31.2x    frame= 4324 fps=763 q=-0.0 size=N/A time=00:03:00.34 bitrate=N/A speed=31.8x    frame= 4757 fps=769 q=-0.0 size=N/A time=00:03:18.40 bitrate=N/A speed=32.1x    frame= 5235 fps=782 q=-0.0 size=N/A time=00:03:38.34 bitrate=N/A speed=32.6x    frame= 5671 fps=786 q=-0.0 size=N/A time=00:03:56.52 bitrate=N/A speed=32.8x    frame= 6132 fps=793 q=-0.0 size=N/A time=00:04:15.75 bitrate=N/A speed=33.1x    frame= 6592 fps=799 q=-0.0 size=N/A time=00:04:34.94 bitrate=N/A speed=33.3x    frame= 6917 fps=789 q=-0.0 size=N/A time=00:04:48.49 bitrate=N/A speed=32.9x    frame= 7445 fps=802 q=-0.0 size=N/A time=00:05:10.51 bitrate=N/A speed=33.4x    frame= 7907 fps=807 q=-0.0 size=N/A time=00:05:29.78 bitrate=N/A speed=33.7x    frame= 8225 fps=797 q=-0.0 size=N/A time=00:05:43.05 bitrate=N/A speed=33.3x    frame= 8721 fps=806 q=-0.0 size=N/A time=00:06:03.73 bitrate=N/A speed=33.6x    frame= 9224 fps=813 q=-0.0 size=N/A time=00:06:24.71 bitrate=N/A speed=33.9x    frame= 9686 fps=817 q=-0.0 size=N/A time=00:06:43.98 bitrate=N/A speed=34.1x    frame=10193 fps=824 q=-0.0 size=N/A time=00:07:05.13 bitrate=N/A speed=34.4x    frame=10585 fps=821 q=-0.0 size=N/A time=00:07:21.48 bitrate=N/A speed=34.2x    frame=11063 fps=825 q=-0.0 size=N/A time=00:07:41.46 bitrate=N/A speed=34.4x    frame=11527 fps=828 q=-0.0 size=N/A time=00:08:00.77 bitrate=N/A speed=34.6x    frame=12001 fps=831 q=-0.0 size=N/A time=00:08:20.54 bitrate=N/A speed=34.7x    frame=12426 fps=831 q=-0.0 size=N/A time=00:08:38.26 bitrate=N/A speed=34.7x    frame=12859 fps=832 q=-0.0 size=N/A time=00:08:56.32 bitrate=N/A speed=34.7x    frame=13243 fps=829 q=-0.0 size=N/A time=00:09:12.34 bitrate=N/A speed=34.6x    frame=13679 fps=829 q=-0.0 size=N/A time=00:09:30.52 bitrate=N/A speed=34.6x    frame=14110 fps=829 q=-0.0 size=N/A time=00:09:48.50 bitrate=N/A speed=34.6x    frame=14596 fps=833 q=-0.0 size=N/A time=00:10:08.77 bitrate=N/A speed=34.7x    frame=15078 fps=835 q=-0.0 size=N/A time=00:10:28.87 bitrate=N/A speed=34.8x    frame=15585 fps=840 q=-0.0 size=N/A time=00:10:50.02 bitrate=N/A speed=  35x    frame=16112 fps=845 q=-0.0 size=N/A time=00:11:12.00 bitrate=N/A speed=35.2x    frame=16632 fps=849 q=-0.0 size=N/A time=00:11:33.69 bitrate=N/A speed=35.4x    frame=17054 fps=848 q=-0.0 size=N/A time=00:11:51.29 bitrate=N/A speed=35.4x    frame=17515 fps=849 q=-0.0 size=N/A time=00:12:10.52 bitrate=N/A speed=35.4x    frame=18037 fps=853 q=-0.0 size=N/A time=00:12:32.29 bitrate=N/A speed=35.6x    frame=18539 fps=856 q=-0.0 size=N/A time=00:12:53.23 bitrate=N/A speed=35.7x    frame=19062 fps=860 q=-0.0 size=N/A time=00:13:15.04 bitrate=N/A speed=35.9x    frame=19594 fps=864 q=-0.0 size=N/A time=00:13:37.23 bitrate=N/A speed=  36x    frame=20142 fps=868 q=-0.0 size=N/A time=00:14:00.08 bitrate=N/A speed=36.2x    frame=20684 fps=872 q=-0.0 size=N/A time=00:14:22.69 bitrate=N/A speed=36.4x    frame=21072 fps=870 q=-0.0 size=N/A time=00:14:38.87 bitrate=N/A speed=36.3x    frame=21644 fps=875 q=-0.0 size=N/A time=00:15:02.73 bitrate=N/A speed=36.5x    frame=22206 fps=879 q=-0.0 size=N/A time=00:15:26.17 bitrate=N/A speed=36.7x    frame=22754 fps=883 q=-0.0 size=N/A time=00:15:49.03 bitrate=N/A speed=36.8x    frame=23148 fps=880 q=-0.0 size=N/A time=00:16:05.46 bitrate=N/A speed=36.7x    frame=23571 fps=879 q=-0.0 size=N/A time=00:16:23.10 bitrate=N/A speed=36.7x    frame=23970 fps=877 q=-0.0 size=N/A time=00:16:39.74 bitrate=N/A speed=36.6x    frame=24468 fps=879 q=-0.0 size=N/A time=00:17:00.51 bitrate=N/A speed=36.7x    frame=24833 fps=876 q=-0.0 size=N/A time=00:17:15.74 bitrate=N/A speed=36.5x    frame=25211 fps=873 q=-0.0 size=N/A time=00:17:31.50 bitrate=N/A speed=36.4x    frame=25673 fps=874 q=-0.0 size=N/A time=00:17:50.77 bitrate=N/A speed=36.4x    frame=26125 fps=873 q=-0.0 size=N/A time=00:18:09.63 bitrate=N/A speed=36.4x    frame=26681 fps=877 q=-0.0 size=N/A time=00:18:32.82 bitrate=N/A speed=36.6x    frame=27162 fps=878 q=-0.0 size=N/A time=00:18:52.88 bitrate=N/A speed=36.6x    frame=27685 fps=880 q=-0.0 size=N/A time=00:19:14.69 bitrate=N/A speed=36.7x    frame=28182 fps=882 q=-0.0 size=N/A time=00:19:35.42 bitrate=N/A speed=36.8x    frame=28680 fps=883 q=-0.0 size=N/A time=00:19:56.19 bitrate=N/A speed=36.8x    frame=29157 fps=884 q=-0.0 size=N/A time=00:20:16.08 bitrate=N/A speed=36.9x    frame=29709 fps=886 q=-0.0 size=N/A time=00:20:39.11 bitrate=N/A speed=  37x    frame=30100 fps=885 q=-0.0 size=N/A time=00:20:55.42 bitrate=N/A speed=36.9x    frame=30555 fps=885 q=-0.0 size=N/A time=00:21:14.39 bitrate=N/A speed=36.9x    frame=30959 fps=883 q=-0.0 size=N/A time=00:21:31.24 bitrate=N/A speed=36.8x    frame=31509 fps=886 q=-0.0 size=N/A time=00:21:54.18 bitrate=N/A speed=36.9x    frame=32070 fps=889 q=-0.0 size=N/A time=00:22:17.58 bitrate=N/A speed=37.1x    frame=32534 fps=889 q=-0.0 size=N/A time=00:22:36.93 bitrate=N/A speed=37.1x    frame=32862 fps=885 q=-0.0 size=N/A time=00:22:50.61 bitrate=N/A speed=36.9x    frame=33300 fps=885 q=-0.0 size=N/A time=00:23:08.88 bitrate=N/A speed=36.9x    frame=33721 fps=884 q=-0.0 size=N/A time=00:23:26.44 bitrate=N/A speed=36.9x    frame=34136 fps=883 q=-0.0 size=N/A time=00:23:43.75 bitrate=N/A speed=36.8x    frame=34628 fps=884 q=-0.0 size=N/A time=00:24:04.27 bitrate=N/A speed=36.9x    frame=35149 fps=885 q=-0.0 size=N/A time=00:24:26.00 bitrate=N/A speed=36.9x    [Parsed_psnr_10 @ 00000220048ebc40] PSNR y:47.508508 u:51.209499 v:51.176384 average:48.427029 min:36.869605 max:58.973920
[out#0/null @ 0000022003a0bec0] video:15144KiB audio:275624KiB subtitle:0KiB other streams:0KiB global headers:0KiB muxing overhead: unknown
frame=35245 fps=886 q=-0.0 Lsize=N/A time=00:24:29.99 bitrate=N/A speed=  37x    
